<?xml version="1.0" encoding="UTF-8"?>
<svg version="1.1" xmlns="http://www.w3.org/2000/svg" width="115" height="30">
<path d="M0 0 C37.95 0 75.9 0 115 0 C115 9.9 115 19.8 115 30 C77.05 30 39.1 30 0 30 C0 20.1 0 10.2 0 0 Z " fill="#FE5251" transform="translate(0,0)"/>
<path d="M0 0 C18.81 0 37.62 0 57 0 C57 9.9 57 19.8 57 30 C38.19 30 19.38 30 0 30 C0 20.1 0 10.2 0 0 Z " fill="#2B292A" transform="translate(0,0)"/>
<path d="M0 0 C9.05660377 -0.60377358 9.05660377 -0.60377358 13.125 2 C15.19618595 5.31389753 15.76001833 7.21775808 15.46875 11.0625 C14.58556388 14.71300264 13.120231 16.00305216 10 18 C6.55189604 18.40534963 3.49364097 18.2329094 0 18 C0 12.06 0 6.12 0 0 Z " fill="#F6E6E4" transform="translate(86,6)"/>
<path d="M0 0 C9 0 9 0 12.0625 1.375 C14.631747 4.85591529 14.71739249 7.39379217 14.47265625 11.6484375 C14 14 14 14 12.0625 16.625 C9 18 9 18 0 18 C0 12.06 0 6.12 0 0 Z " fill="#373633" transform="translate(6,6)"/>
<path d="M0 0 C4.73751475 1.18437869 5.15741989 2.12377253 7.75 6.0625 C8.36359375 6.98160156 8.9771875 7.90070312 9.609375 8.84765625 C10.06828125 9.55792969 10.5271875 10.26820312 11 11 C11.33 7.37 11.66 3.74 12 0 C12.99 0 13.98 0 15 0 C15 5.94 15 11.88 15 18 C11 17 11 17 9.078125 14.49609375 C8.47484375 13.48675781 7.8715625 12.47742188 7.25 11.4375 C6.32960938 9.91962891 6.32960938 9.91962891 5.390625 8.37109375 C4.93171875 7.58863281 4.4728125 6.80617188 4 6 C3.67 9.96 3.34 13.92 3 18 C2.01 18 1.02 18 0 18 C0 12.06 0 6.12 0 0 Z " fill="#BED7E8" transform="translate(40,6)"/>
<path d="M0 0 C0.99 0 1.98 0 3 0 C3.33 4.62 3.66 9.24 4 14 C5.65 14.33 7.3 14.66 9 15 C10.94090826 13.05909174 10.39919435 9.52706098 10.5625 6.9375 C10.64628906 5.64714844 10.73007812 4.35679688 10.81640625 3.02734375 C10.87699219 2.02832031 10.93757813 1.02929688 11 0 C11.99 0 12.98 0 14 0 C14.0809723 2.43816585 14.14046972 4.87364384 14.1875 7.3125 C14.22520508 8.34793945 14.22520508 8.34793945 14.26367188 9.40429688 C14.33720398 14.47801241 14.33720398 14.47801241 12.73828125 16.953125 C10.6762735 18.19496337 9.40037385 18.43295384 7 18.4375 C6.319375 18.45683594 5.63875 18.47617187 4.9375 18.49609375 C3 18 3 18 1.26171875 16.42578125 C-0.4716991 13.09311102 -0.29119028 10.48285014 -0.1875 6.75 C-0.16042969 5.48671875 -0.13335938 4.2234375 -0.10546875 2.921875 C-0.07066406 1.95765625 -0.03585938 0.9934375 0 0 Z " fill="#CCD9D7" transform="translate(23,6)"/>
<path d="M0 0 C6.75 0.75 6.75 0.75 9 3 C9.27922749 5.93188861 9.47143881 8.15390647 9 11 C7.3125 13 7.3125 13 5 14 C3.35 14 1.7 14 0 14 C0 9.38 0 4.76 0 0 Z " fill="#FE4B4E" transform="translate(89,8)"/>
<path d="M0 0 C9 0 9 0 12.0625 1.375 C14.631747 4.85591529 14.71739249 7.39379217 14.47265625 11.6484375 C14 14 14 14 12.0625 16.625 C9 18 9 18 0 18 C0 12.06 0 6.12 0 0 Z M2 2 C2 6.62 2 11.24 2 16 C3.918125 15.8453125 3.918125 15.8453125 5.875 15.6875 C6.59429688 15.62949219 7.31359375 15.57148438 8.0546875 15.51171875 C10.39519216 15.12606964 10.39519216 15.12606964 12 12 C12.33957563 7.92509248 12.31332486 6.46998729 10 3 C8.03638136 2.42251197 8.03638136 2.42251197 5.875 2.3125 C4.59625 2.209375 3.3175 2.10625 2 2 Z " fill="#EEF3EE" transform="translate(6,6)"/>
<path d="M0 0 C0.99 0 1.98 0 3 0 C4.32 3.96 5.64 7.92 7 12 C8.65 8.04 10.3 4.08 12 0 C12.99 0 13.98 0 15 0 C13.41039668 6.23440168 11.72399099 12.16287645 9 18 C7.171875 17.9296875 7.171875 17.9296875 5 17 C3.86392391 14.66207499 3.02839496 12.57767844 2.25 10.125 C1.91935547 9.16787109 1.91935547 9.16787109 1.58203125 8.19140625 C0.62389206 5.34079337 0 3.0256129 0 0 Z " fill="#F7DEDF" transform="translate(57,6)"/>
<path d="M0 0 C4.20393865 0.76836694 5.52187506 2.54832597 8 6 C8.928125 4.515 8.928125 4.515 9.875 3 C10.57625 2.01 11.2775 1.02 12 0 C12.66 0 13.32 0 14 0 C13.58561733 2.90067867 13.10841022 4.83286757 11.5 7.3125 C9.48638828 10.920221 9.34764845 13.89774826 9 18 C8.01 18 7.02 18 6 18 C5.85304688 17.05640625 5.85304688 17.05640625 5.703125 16.09375 C4.64862021 10.05761911 2.97532864 5.35559155 0 0 Z " fill="#F6DEDE" transform="translate(101,6)"/>
<path d="M0 0 C0.99 0 1.98 0 3 0 C3 5.94 3 11.88 3 18 C2.01 18 1.02 18 0 18 C0 12.06 0 6.12 0 0 Z " fill="#F6DEDB" transform="translate(80,6)"/>
<path d="M0 0 C3.3 0 6.6 0 10 0 C10 0.66 10 1.32 10 2 C7.69 2 5.38 2 3 2 C3.03480469 2.98742187 3.06960937 3.97484375 3.10546875 4.9921875 C3.13253906 6.27351562 3.15960938 7.55484375 3.1875 8.875 C3.22230469 10.15117187 3.25710937 11.42734375 3.29296875 12.7421875 C3.19628906 13.81726563 3.09960938 14.89234375 3 16 C2.01 16.66 1.02 17.32 0 18 C0 12.06 0 6.12 0 0 Z " fill="#F7DBDE" transform="translate(86,6)"/>
<path d="M0 0 C2.8992226 0.46761655 3.86675182 0.86675182 6 3 C6.3359375 5.27734375 6.3359375 5.27734375 6.375 7.9375 C6.40335938 8.81277344 6.43171875 9.68804687 6.4609375 10.58984375 C6 13 6 13 3.9765625 14.81640625 C3.32429688 15.20699219 2.67203125 15.59757812 2 16 C1.01 15.34 0.02 14.68 -1 14 C-0.01 13.67 0.98 13.34 2 13 C3.36952673 10.26094655 3.12621361 8.02912668 3 5 C2.04134491 2.66924071 2.04134491 2.66924071 -1 1 C-0.67 0.67 -0.34 0.34 0 0 Z " fill="#E1E5DD" transform="translate(14,7)"/>
<path d="M0 0 C0.66 0 1.32 0 2 0 C2 5.94 2 11.88 2 18 C0.68 17.67 -0.64 17.34 -2 17 C-1.505 15.515 -1.505 15.515 -1 14 C-0.77439324 11.60745424 -0.59151405 9.21071877 -0.4375 6.8125 C-0.35371094 5.54019531 -0.26992188 4.26789062 -0.18359375 2.95703125 C-0.12300781 1.98121094 -0.06242187 1.00539063 0 0 Z " fill="#F0EAD8" transform="translate(53,6)"/>
<path d="M0 0 C0.33 0 0.66 0 1 0 C1 4.62 1 9.24 1 14 C-0.32 14 -1.64 14 -3 14 C-3.99 12.02 -4.98 10.04 -6 8 C-4.0625 8.375 -4.0625 8.375 -2 9 C-1.67 9.66 -1.34 10.32 -1 11 C-0.67 7.37 -0.34 3.74 0 0 Z " fill="#95C3D2" transform="translate(52,6)"/>
<path d="M0 0 C0.99 0 1.98 0 3 0 C3.66 1.65 4.32 3.3 5 5 C4.01 5 3.02 5 2 5 C1.67 4.34 1.34 3.68 1 3 C0.67 6.96 0.34 10.92 0 15 C-0.33 15 -0.66 15 -1 15 C-1.02685412 12.68756208 -1.04632841 10.3750373 -1.0625 8.0625 C-1.07410156 6.77472656 -1.08570313 5.48695312 -1.09765625 4.16015625 C-1 1 -1 1 0 0 Z " fill="#E9D5B5" transform="translate(43,9)"/>
<path d="M0 0 C0.99 0 1.98 0 3 0 C2.34 2.31 1.68 4.62 1 7 C0.34 7 -0.32 7 -1 7 C-0.67 4.69 -0.34 2.38 0 0 Z " fill="#F6E5E6" transform="translate(69,6)"/>
</svg>
